# xmcd
#
# Track frame offsets:
#	150
#	4727
#	22877
#	36637
#	48622
#	64565
#	79547
#	97385
#	100045
#	117860
#	129815
#	146762
#	149445
#
# Disc length: 2217 seconds
#
# Revision: 1
# Processed by: cddbd v1.5PL3 Copyright (c) Steve Scherf et al.
# Submitted via: audiograbber 1.82.02
#
DISCID=af08a70d
DTITLE=The Lovin' Kind - Along The Way
DYEAR=1998
DGENRE=Country
TTITLE0=Along The Way
TTITLE1=We Just Drive
TTITLE2=Angel On Your Shoulder
TTITLE3=That's What Love Can Do
TTITLE4=Change Partners
TTITLE5=Contradiction
TTITLE6=This Red Rose
TTITLE7=Along The Way
TTITLE8=Jolene
TTITLE9=Swing Thing
TTITLE10=The Wildness
TTITLE11=Along The Way (Reprise)
TTITLE12=No More Next Times
EXTD=
EXTT0=
EXTT1=
EXTT2=
EXTT3=
EXTT4=
EXTT5=
EXTT6=
EXTT7=
EXTT8=
EXTT9=
EXTT10=
EXTT11=
EXTT12=
PLAYORDER=
